<?xml version="1.0" standalone="no"?>
<!DOCTYPE svg PUBLIC "-//W3C//DTD SVG 20010904//EN"
 "http://www.w3.org/TR/2001/REC-SVG-20010904/DTD/svg10.dtd">
<svg version="1.0" xmlns="http://www.w3.org/2000/svg"
 width="260.000000pt" height="260.000000pt" viewBox="0 0 260.000000 260.000000"
 preserveAspectRatio="xMidYMid meet">
<metadata>
Created by potrace 1.14, written by Peter Selinger 2001-2017
</metadata>
<g transform="translate(0.000000,260.000000) scale(0.100000,-0.100000)"
fill="#000000" stroke="none">
<path d="M1218 2454 c-52 -22 -86 -77 -82 -134 4 -60 6 -70 16 -70 4 0 7 -4 5
-9 -1 -4 9 -17 22 -28 16 -13 23 -28 22 -49 -6 -96 -3 -133 11 -162 18 -35 19
-34 -37 -52 -81 -25 -167 -74 -216 -121 l-51 -49 -165 2 -165 3 -13 39 c-8 22
-13 42 -12 45 2 9 -25 85 -35 97 -5 8 -49 11 -125 10 -113 -1 -118 -2 -129
-25 -24 -47 26 -84 68 -52 26 20 125 26 145 9 7 -6 13 -20 13 -33 0 -12 3 -25
7 -29 4 -4 9 -19 11 -34 2 -15 7 -31 13 -36 5 -6 9 -23 9 -38 0 -15 4 -28 8
-28 4 0 9 -11 10 -26 1 -14 7 -34 12 -45 6 -11 8 -24 5 -29 -3 -5 -1 -11 4
-14 5 -4 12 -24 16 -46 4 -22 11 -42 16 -46 5 -3 7 -9 4 -14 -3 -5 -1 -19 5
-31 7 -11 14 -33 16 -47 3 -15 12 -47 20 -72 9 -25 18 -54 20 -65 10 -41 13
-50 14 -52 2 -2 4 -7 5 -13 1 -5 3 -11 5 -12 3 -5 12 -43 13 -60 1 -10 5 -18
9 -18 4 0 7 -3 6 -7 -2 -11 11 -62 29 -108 8 -22 14 -41 14 -42 -1 -2 -1 -4 0
-5 16 -54 22 -128 10 -128 -6 0 -10 -3 -9 -8 3 -15 -15 -62 -24 -62 -5 0 -7
-4 -4 -8 3 -5 -4 -25 -14 -45 -11 -21 -20 -38 -19 -39 1 -6 -22 -65 -36 -92
-11 -20 -12 -26 -3 -19 7 6 26 13 41 17 15 4 25 11 22 15 -3 5 3 17 12 27 10
10 16 19 13 20 -8 4 33 104 43 104 4 0 5 4 2 10 -3 5 1 20 9 32 9 12 16 30 16
40 0 10 4 18 10 18 5 0 7 7 4 15 -5 13 70 15 640 16 355 1 650 2 656 3 5 0 16
10 24 21 13 19 18 36 32 115 6 38 12 65 14 65 1 0 3 10 6 23 2 12 6 32 8 45 3
12 5 22 6 22 1 0 4 11 6 25 5 31 12 65 14 65 1 0 3 9 5 20 1 11 5 34 9 50 4
17 9 41 11 55 2 14 7 36 10 50 4 14 8 34 9 45 2 11 5 21 6 23 3 3 4 8 15 67 4
28 10 55 11 60 4 12 15 65 18 82 1 7 5 15 8 18 12 12 -4 43 -25 49 -12 3 -115
6 -228 6 l-206 0 -37 35 c-21 19 -42 35 -47 35 -6 0 -17 7 -25 15 -14 13 -12
20 15 57 16 24 37 68 46 98 12 39 29 67 60 96 55 52 71 80 74 127 6 90 -51
135 -153 123 -31 -4 -58 -12 -61 -17 -10 -15 -45 -10 -74 11 -39 27 -113 42
-199 39 -67 -2 -75 0 -101 25 -26 25 -78 47 -111 45 -8 0 -31 -7 -52 -15z"/>
<path d="M679 515 c-13 -8 -27 -11 -32 -8 -4 2 -6 -1 -5 -8 2 -7 -3 -13 -9
-14 -7 0 -12 -3 -10 -6 1 -4 -5 -15 -14 -25 -18 -20 -23 -110 -8 -120 5 -3 9
-14 9 -25 0 -11 4 -18 9 -14 5 3 17 -5 25 -17 9 -12 16 -19 16 -15 0 4 12 1
28 -6 30 -16 53 -15 96 2 26 11 84 61 69 61 -3 0 -1 6 4 13 14 19 16 83 2 108
-38 71 -121 105 -180 74z"/>
<path d="M1868 502 c-21 -13 -38 -30 -38 -38 0 -7 -5 -14 -10 -16 -13 -4 -19
-77 -9 -104 10 -29 73 -91 87 -86 7 2 12 0 12 -5 0 -11 66 -11 76 0 4 4 16 7
26 7 11 0 16 5 13 10 -3 6 0 10 7 10 14 0 44 39 40 53 -1 4 2 7 7 7 10 0 8 78
-4 105 -5 11 -15 24 -22 28 -7 5 -10 13 -7 19 4 6 2 8 -4 4 -6 -3 -15 2 -21
11 -6 10 -11 14 -11 9 0 -5 -6 -4 -12 1 -25 19 -91 11 -130 -15z"/>
<path d="M917 492 c-18 -4 -22 -19 -9 -39 7 -11 256 -15 787 -13 66 0 71 2 86
28 l15 27 -431 0 c-237 0 -439 -1 -448 -3z"/>
</g>
</svg>
